<svg width="52" height="52" fill="none" xmlns="http://www.w3.org/2000/svg"><g clip-path="url(#clip0)" fill="#AE7C78"><path d="M35.7023 13.8987c.2115 0 .4248-.0167.6378-.0504 1.0601-.1681 1.9912-.739 2.6219-1.6075l3.8274-5.26984c.1551-.21358.1886-.49227.0885-.73653-.1002-.24425-.3197-.41924-.5801-.46251-.0678-.01127-1.5689-.25777-3.4018-.27808-.587-1.7361-1.2845-3.08678-1.3167-3.14894-.1216-.2343-.3559-.38888-.6192-.40848-.2629-.02011-.5179.09831-.673.312l-3.8274 5.26986c-.6307.86846-.8855 1.9305-.7174 2.99062.1244.785.4702 1.4988.9936 2.0728-.5794.6885-1.5995 1.9413-2.7179 3.5005v-.666c0-.4207-.341-.7617-.7617-.7617s-.7617.341-.7617.7617v2.9103c-.6113.957-1.2067 1.9687-1.7331 2.9958v-4.2776-1.313l2.2194-2.2193c.2975-.2975.2975-.7798 0-1.0772-.2975-.2975-.7798-.2975-1.0772 0l-1.1424 1.1421v-2.3576c1.8525-.3571 3.2565-1.98969 3.2565-3.94486V.761749c0-.26396-.1367-.509131-.3612-.647967-.2246-.138836-.5049-.15143-.7411-.033312-.0616.030773-1.4199.713982-2.9158 1.77419C24.5045.794859 23.1463.111751 23.0838.08047c-.2363-.118118-.5167-.105422-.7411.033312-.2246.138836-.3613.384007-.3613.647967V7.27484c0 1.95517 1.404 3.58786 3.2565 3.94486v3.9858l-1.9562-1.9562c-.2975-.2974-.7798-.2974-1.0772 0-.2974.2975-.2974.7798 0 1.0772L25.238 17.36v3.9623c-1.9429-3.7905-4.8254-7.3754-5.9744-8.7406.5234-.574.8693-1.2878.9937-2.0728.1681-1.06012-.0868-2.12216-.7175-2.99062l-3.8273-5.26986c-.1551-.21369-.4101-.33201-.6731-.312-.2632.0196-.4975.17418-.6192.40848-.0325.06216-.7299 1.41294-1.3169 3.14904-1.832.02052-3.33385.26671-3.40179.27798-.26041.04327-.47999.21826-.58003.46251-.10014.24426-.06662.52295.08846.73653l3.82736 5.26984c.6307.8685 1.5618 1.4393 2.622 1.6075.213.0338.4261.0504.6378.0504.6058 0 1.1989-.1375 1.7427-.4023.2353.2801.5604.6737.9452 1.1582h-.6688c-.4206 0-.7617.341-.7617.7617 0 .4206.3411.7617.7617.7617h1.8399c1.1129 1.4965 2.4027 3.3796 3.4514 5.3224-1.2389-1.2175-2.6157-2.3099-4.1191-3.2667-4.5616-2.9028-8.6716-3.5448-8.8444-3.5707-.2191-.0328-.442.0315-.61.1761-.16806.1447-.26465.3555-.26465.5772 0 .1217.01676 3.0286 1.46955 7.0757 1.3118 3.6545 4.0985 8.9612 9.9284 13.6431v2.7913L17.9365 51.042c-.0611.2286-.0123.4727.1319.6604.1441.1876.3674.2976.604.2976h14.6544c.2367 0 .4599-.11.604-.2976.1442-.1877.193-.4317.1319-.6604L30.832 38.9264v-2.7913c5.8297-4.6819 8.6165-9.9886 9.9284-13.6431 1.4528-4.0471 1.4695-6.954 1.4695-7.0757 0-.2217-.0967-.4325-.2647-.5772-.168-.1447-.3905-.2091-.6101-.1761-.1008.0151-2.5074.3873-5.676 1.8457-2.0761.9555-4.7713 2.5286-7.2939 5.0045 1.0501-1.9469 2.3432-3.8351 3.4585-5.3352h1.8392c.4207 0 .7617-.3411.7617-.7617 0-.4207-.341-.7617-.7617-.7617h-.6683c.3847-.4844.7096-.878.9449-1.1581.5439.2647 1.137.4022 1.7428.4022zm5.0944-6.77651l-1.1502 1.58366c-.0542-.52132-.1528-1.0795-.2998-1.6773.5364.01828 1.0333.05434 1.45.09364zm-28.444 1.58366l-1.1504-1.58396c.4163-.03931.9131-.07516 1.4502-.09324-.147.5978-.2456 1.15588-.2998 1.6772zm5.4019 3.19235c-.5393.3916-1.1987.5498-1.8569.4454-.6581-.1044-1.2362-.4587-1.6278-.9979-1.0923-1.50398.0663-5.05805.9685-7.15744l3.0687 4.22519c.8083 1.11302.5605 2.67625-.5525 3.48475zm10.7398-9.84326V4.0091c-.3497-.38888-.7591-.78172-1.2281-1.17792.4446-.30042.8678-.56316 1.2281-.77624zm-4.9896 5.2199V2.05281c1.9638 1.16858 4.9897 3.36324 4.9897 5.22203 0 1.37566-1.1192 2.49478-2.4948 2.49478-1.3755 0-2.4949-1.11912-2.4949-2.49478zM12.6962 22.0425c-.9014-2.4906-1.224-4.5436-1.3394-5.6753 1.4205.346 4.2741 1.2175 7.3137 3.1518 2.518 1.6024 4.6564 3.6077 6.3553 5.9603 1.9657 2.7216 3.3473 5.9241 4.1162 9.5286h-1.7742c-.9741-4.2731-2.8912-7.9105-5.7053-10.8182-.2925-.3023-.7747-.3102-1.0771-.0175-.3023.2925-.3101.7748-.0175 1.077 2.5429 2.6275 4.3 5.9076 5.2339 9.7587h-3.6052c-5.5796-4.4546-8.246-9.499-9.5004-12.9654zm16.6123 14.4888v1.7331h-6.6179v-1.7331h6.6179zm3.0269 13.9452h-3.2265l-.1288-.967c-.0556-.4169-.4387-.7101-.8557-.6543-.417.0555-.7099.4386-.6544.8556l.1021.7656H19.664l2.8502-10.6886h3.6327l.8889 6.6664c.0509.3829.3781.6612.7541.6612.0335 0 .0674-.0022.1015-.0068.417-.0556.7099-.4387.6544-.8557l-.8621-6.4651h1.8013l2.8504 10.6887zm3.9323-32.5616c1.8412-.8521 3.4263-1.316 4.3746-1.5472-.1155 1.1321-.4382 3.1847-1.3393 5.6748-1.196 3.305-3.6749 8.0448-8.7392 12.3399-.7329-3.2742-1.9545-6.2346-3.6431-8.8287 2.9281-4.0857 6.6821-6.4056 9.347-7.6388zm-2.5755-9.50145l3.0692-4.2259c.903 2.09838 2.0624 5.65123.968 7.15815-.3917.5392-.9698.8935-1.6279.9979-.6582.1043-1.3176-.0538-1.8567-.4454-1.1132-.8085-1.361-2.37162-.5526-3.48475z"/><path d="M19.1329 21.9564c-.5384-.4055-1.1049-.7931-1.684-1.1519-.3577-.2217-.8272-.1114-1.0488.2462-.2216.3576-.1114.8271.2462 1.0487.5399.3346 1.0681.696 1.57 1.0738.1373.1034.2981.1534.4576.1534.2311 0 .4593-.1047.6091-.3035.2532-.3361.1858-.8136-.1501-1.0667z"/></g><defs><clipPath id="clip0"><path fill="#fff" d="M0 0h52v52H0z"/></clipPath></defs></svg>