<svg width="82" height="52" fill="none" xmlns="http://www.w3.org/2000/svg"><path d="M80.6664 24.0056c-.8525-1.0186-2.0154-1.6805-3.3485-1.928l-.6262-8.5202c.6177-.0059 1.1445-.452 1.2521-1.0632l.2415-1.3729c.2588-1.47172-.1022-2.92445-.9906-3.98559-.8872-1.06001-2.1863-1.64396-3.6579-1.64396h-9.4259l.4589-2.60828c.1302-.74081-.0585-1.48051-.5175-2.028977C63.5978.311484 62.9144 0 62.1773 0H15.7792c-1.372 0-2.635 1.07012-2.8754 2.43664L8.79883 25.7766c-.123.7.34322 1.3676 1.0415 1.4909.07527.0134.15022.0198.22437.0198.6113 0 1.1531-.4395 1.2628-1.0639l4.1052-23.33993c.027-.15365.2243-.30939.3464-.30939l46.2375.00016-4.081 23.20236c-.1232.7.3431 1.3676 1.0415 1.4909.6975.1232 1.3642-.344 1.4872-1.0441l.296-1.6825H76.1174c1.0612.0002 1.978.3976 2.582 1.119.4156.4966.6581 1.1147.7164 1.7985H75.151c-.6232 0-1.1562.4485-1.2645 1.0637l-.4828 2.7459c-.1946 1.1063.0802 2.2024.7538 3.0073.6644.7939 1.6729 1.2491 2.7666 1.2491h1.2088l-.9961 5.6634H73.747c-.2231-1.1327-.7114-2.1746-1.4515-3.0585-1.3131-1.5691-3.2455-2.4331-5.4408-2.4331-3.5201 0-6.9162 2.3089-8.5061 5.4918h-.5161l1.6661-9.4728c.123-.7001-.3431-1.3677-1.0415-1.491-.698-.1236-1.3642.3439-1.4872 1.0441l-1.7448 9.9198H31.4576c-.2231-1.1327-.7114-2.1744-1.4515-3.0584-1.3133-1.5692-3.2456-2.4332-5.441-2.4332-3.5201 0-6.9162 2.3089-8.5061 5.4918l-7.36363-.0002.51314-2.9173h5.77029c.709 0 1.284-.5763 1.284-1.2872 0-.7108-.5748-1.2872-1.284-1.2872H1.28397C.574961 35.6964 0 36.2726 0 36.9836c0 .7108.574801 1.2872 1.28397 1.2872h5.31736l-.45885 2.6083c-.13021.7408.05845 1.4805.51746 2.0289.45453.543 1.13791.8545 1.87495.8545h6.69041c-.3481 2.1835.175 4.2404 1.4843 5.8044C18.0229 51.136 19.9552 52 22.1506 52c4.3697 0 8.5503-3.5565 9.3192-7.9284.0181-.1036.0323-.2065.0467-.3092h25.9984c-.3482 2.1832.1749 4.2402 1.4843 5.8043 1.3133 1.5692 3.2456 2.4331 5.441 2.4331 4.3697 0 8.5503-3.5565 9.3192-7.9284.0181-.1035.0323-.2064.0467-.3092h4.4083c.6232 0 1.1562-.4484 1.2645-1.0637l2.4148-13.7294c.3277-1.8636-.1081-3.6263-1.2273-4.9635zm-19.453-2.0384l1.479-8.4093h11.4249l.6181 8.4093h-13.522zm14.443-11.2928l-.0544.3093H63.145l.5132-2.91755h9.8786c.6994 0 1.2999.25722 1.6907.72428.4052.48392.5577 1.15281.4289 1.88397zM28.9411 43.6249c-.5625 3.1988-3.6088 5.801-6.7905 5.801-1.4232 0-2.657-.5375-3.474-1.5134-.8405-1.0043-1.1608-2.3681-.9018-3.8404.5626-3.1988 3.6088-5.801 6.7905-5.801 1.4231 0 2.657.5376 3.4739 1.5136.8405 1.004 1.1608 2.3679.9019 3.8402zm42.2894 0c-.5626 3.1988-3.6088 5.801-6.7905 5.801-1.4231 0-2.657-.5375-3.4739-1.5136-.8405-1.0043-1.1608-2.368-.9019-3.8404.5625-3.1988 3.6088-5.801 6.7905-5.801 1.423 0 2.657.5376 3.474 1.5136.8405 1.0042 1.1608 2.3681.9018 3.8404zm7.3552-10.6741h-1.6616v-.0001c-.3426 0-.619-.114-.7995-.3295-.1873-.2238-.2556-.5454-.1922-.9056l.2959-1.6821h2.8705l-.5131 2.9173z" fill="#AE7C78"/><path d="M25.4748 42.0427c-.4546-.543-1.138-.8545-1.8752-.8545-1.372 0-2.635 1.0702-2.8754 2.4367-.1302.7408.0585 1.4805.5175 2.029.4545.543 1.1379.8544 1.8749.8544 1.3721 0 2.6351-1.0702 2.8755-2.4364.1303-.741-.0582-1.4805-.5173-2.0292zM67.7637 42.0427c-.4547-.543-1.1381-.8545-1.8749-.8545-1.3721 0-2.6351 1.0702-2.8753 2.4365-.1302.741.0581 1.4805.5173 2.0292.4545.543 1.1379.8544 1.8749.8544 1.3721 0 2.6351-1.0702 2.8755-2.4364.1304-.741-.0583-1.4805-.5175-2.0292zM51.7904 35.6965H35.5212c-.709 0-1.284.5763-1.284 1.2872 0 .7108.5748 1.2872 1.284 1.2872h16.2692c.709 0 1.284-.5762 1.284-1.2872-.0002-.7109-.575-1.2872-1.284-1.2872zM28.6739 30.2048H4.98899c-.70901 0-1.28397.5763-1.28397 1.2872 0 .7108.57464 1.2872 1.28397 1.2872H28.6739c.709 0 1.2839-.5762 1.2839-1.2872 0-.7109-.5748-1.2872-1.2839-1.2872zM53.1922 25.0263l-4.7535-4.1188c-.5365-.4646-1.3472-.4057-1.811.1322-.4638.5378-.4047 1.3506.1318 1.8156l2.1441 1.8579H16.3482c-.709 0-1.284.5763-1.284 1.2872 0 .7108.5748 1.2872 1.284 1.2872h31.7412l-2.6482 1.7588c-.5913.3924-.7529 1.1912-.3613 1.7838.247.374.6554.5764 1.0715.5764.2434 0 .4897-.0693.7079-.2143l6.2023-4.1188c.3351-.2222.5466-.589.5723-.991.0256-.4022-.1378-.793-.4417-1.0562z" fill="#AE7C78"/></svg>