<svg width="100" height="33" fill="none" xmlns="http://www.w3.org/2000/svg"><g clip-path="url(#clip0)"><path d="M9.71757 17.1931c-2.0071 2.549-5.98019 2.6163-8.22276.3326-2.130443-2.1454-1.86881-5.5653.04485-7.692.92693-2.81816 5.00467-2.46683 7.15381-.74752 2.48923 2.00712 3.05363 5.52422 1.0241 8.10692zM13.504 9.48248c-1.9735 0-2.7845-1.22968-2.9527-2.72473-.63541-1.8688.2168-4.05531 2.3061-4.601.4943-.12457 1.0094-.14369 1.5116-.05614.5022.08755.9804.27983 1.4034.56432a3.63215 3.63215 0 011.052 1.08694c.2705.43211.4471.91632.5181 1.42113.0658.54195.0155 1.09169-.1476 1.61268-.1631.52098-.4353 1.00127-.7984 1.40893a3.84536 3.84536 0 01-1.3076.9554 3.845925 3.845925 0 01-1.5849.33247z" fill="#FFDCDC"/><path d="M19.7271 31.1232l.1233-.2318c-.826-.527-1.6482-1.0615-2.4705-1.5922-.7049-.5504-1.3467-1.1771-1.9137-1.8688-.7699-.8485-1.5436-1.7006-2.3173-2.5453-.0673-.071-.1532-.1533-.1607-.2205-.7655-.806-1.3965-1.7298-1.8688-2.736-.4947-.7794-.9416-1.5883-1.3381-2.422-.04111-.0897.05233-.2466.08223-.3737.16627-.0378.32617-.0995.47467-.1832.489-.4281.8456-.987 1.0279-1.6109.7886-2.0183 1.4651-4.0628 1.3903-6.2717-.0197-.1183-.0536-.2337-.1009-.3439-.1053.0559-.2022.1263-.2878.2093-.5232.6915-1.054 1.3792-1.5473 2.0931-.7333 1.0125-1.24297 2.1693-1.49509 3.3938-.11212.5793-.12708 1.1736-.18314 1.7604-.03347-.0476-.06344-.0976-.0897-.1495-.31396-.7475-.61671-1.4951-.94188-2.2426-.04489-.0873-.05824-.1874-.03781-.2835.02043-.096.07339-.182.14994-.2435.3764-.3527.71809-.7407 1.02037-1.1587a14.440171 14.440171 0 001.74551-4.32065c.124-.54727.2052-1.10336.2429-1.66324 0-.17193-.1196-.35507-.1831-.53448a1.63309 1.63309 0 00-.4859.28406c-.4037.48589-.78867.99047-1.15496 1.49505-.74654.94136-1.27502 2.03666-1.54737 3.20686-.10092.5681-.14577 1.1475-.22052 1.7231h-.03738l-.68398-2.7061.19435.2878a3.33357 3.33357 0 01.26537-.4448c.44478-.5569 1.01664-1.0465 1.32312-1.67068a20.516605 20.516605 0 001.12129-2.99009 6.543641 6.543641 0 00.17938-1.46141c0-.12334-.08594-.25042-.13453-.37376-.10092.04111-.24295.05606-.29527.13081-.72884 1.00542-1.49505 1.98842-2.14913 3.03495a10.090914 10.090914 0 00-.6952 1.74921c-.11001-.3591-.09016-.74545.05606-1.09139a19.435083 19.435083 0 001.2222-4.829A33.230643 33.230643 0 008.15918.418613 1.45413 1.45413 0 008.0321 0c-.13456.067277-.31396.104653-.40367.213044A7.669528 7.669528 0 006.01752 3.26668c-.40366 1.74921-.22426 3.49841.10839 5.23267.15324.79611.3177 1.58845.47842 2.39205-.79612-.3027-1.49505-.6092-2.21267-.8335-1.25046-.33718-2.56251-.37686-3.831064-.11583-.159358.05365-.307562.13603-.437301.24293.079006.1598.181006.3071.302747.4373.862808.7012 1.938138 1.0886 3.049898 1.0989a9.053285 9.053285 0 002.61633-.314c.46347-.1308.52327-.0785.62792.3738.12708.5494.25416 1.0988.39619 1.6445.10092.4037.22426.8074.3476 1.2596-.10839-.0598-.16819-.086-.22426-.1233-.85048-.6066-1.89701-.8732-2.93403-.7476-1.08391.1757-2.14913.471-3.22183.7214-.172326.0385-.340177.0949-.500838.1682a.268933.268933 0 00-.134745.0977.269078.269078 0 00-.05148.1583c0 .0569.018022.1123.05148.1583a.268933.268933 0 00.134745.0977c.531648.2692 1.087218.4881 1.659498.6541.69087.1219 1.38867.2006 2.08933.2355 1.15292.1111 2.31454-.0889 3.36386-.5793l1.27079 3.0274c-1.39128-.526-2.9013-.6554-4.3618-.3737-1.12129.2429-2.24257.6354-3.33396.9792-.13829.0449-.24668.1869-.373758.2804.115868.1233.209308.3064.351338.3737.68617.3065 1.39618.5565 2.12297.7475.69387.105 1.39508.1537 2.0968.1458 1.2256.0063 2.43507-.2794 3.52831-.8335.14878-.0745.2935-.1568.43357-.2467l2.47803 4.1899c-.3738-.1458-.8111-.3364-1.2521-.4709-1.8688-.5756-3.8161-.5756-5.75219-.3738-.71015.0673-1.41282.2205-2.11549.3476-.30275.0561-.37376.2093-.18315.3962.6029.6419 1.32531 1.1599 2.12671 1.5249 1.35178.5498 2.79787.8304 4.25715.8261 1.24267.0727 2.47577-.2562 3.51707-.9382a.503713.503713 0 01.2478-.0355c.0843.0091.1649.0393.2344.0878.811.8933 1.5922 1.8128 2.422 2.7696l-.6579-.2168c-.842-.302-1.7232-.4808-2.6163-.5307-1.6837-.0362-3.35449.3008-4.89254.9867-.42235.172-.86339.3065-1.28948.4635-.09851.0436-.19348.0949-.28406.1532.07475.1084.12708.2766.22426.314.79611.2841 1.58101.6765 2.40329.7774 1.78283.2205 3.58433.4597 5.38963.1159.9232-.1719 1.8501-.3289 2.5977-.9718.0567-.042.1167-.0795.1794-.1121.1346.1531.2822.2944.441.4223.8148.5532 1.6296 1.1213 2.4594 1.6334l.3214.1981c.0196-.0152.0339-.0361.0411-.0598zM9.63554 6.04747c-.37377 1.7193-.74753 3.4573-2.13792 4.72813A24.450762 24.450762 0 019.6318 6.04747h.00374zm-.41862-.12708C8.51799 7.52757 7.72187 9.3291 6.97435 11.1082 6.95566 8.97029 8.05079 7.322 9.21318 5.92039h.00374zM1.25206 10.1588c1.39628-.18936 2.81778.0058 4.11138.5644l-4.11138-.4709v-.0935zm-.459731.3252l5.042051.613c-1.19604.7176-4.23846.3065-5.042051-.613zM6.30905 7.89012c-.66903-2.61634 0-6.00262 1.46515-7.351903C6.82858 2.88918 6.68282 5.39339 6.30905 7.89012zM7.8041 1.27079c.33639.91198-.4074 5.4644-1.16613 6.87348.20556-2.30611.35507-4.62343 1.15866-6.87348h.00747zM6.38754 14.4459c.29154.1346.56065.3102.84097.4672l-.03738.1308c-1.91462-.2578-3.84777-.3516-5.77836-.2803 1.63708-.4523 3.26294-1.1063 4.97477-.3177zm-5.12427.7475c.62044-.2504 4.98598-.1383 6.06989.157-1.17735.7214-5.15044.5905-6.06989-.1607v.0037zm6.95945-.3737c.71346-2.113 1.61927-4.1561 2.70608-6.10357-.5046 2.19397-1.04658 4.38797-2.70608 6.08857v.015zM10.839 7.98356L8.0321 14.0759c-.08971-2.4893 1.42029-4.26091 2.8069-6.1073v.01496zM1.28196 19.5702c2.3248-1.2185 6.03251-1.6558 7.74434-.5196-.125-.0011-.24981-.0099-.37376-.0261-1.30443-.2392-2.59391-.0486-3.87965.1457-.9643.1458-1.92861.2878-2.89291.4187-.19627.0025-.39244-.01-.58681-.0374l-.01121.0187zm.93814.2392c2.30611-.2803 4.58606-.9157 6.95945-.4859-1.00542.9755-4.75052 1.6072-6.95945.4859zm10.2411-7.9798c.0112.1168.0112.2345 0 .3513-.2019.9979-.3738 2.0108-.6354 2.9901-.2678.9098-.5974 1.8002-.9868 2.6649-.2097.3502-.4606.6739-.7475.9643-.0785.1009-.14948.2056-.22423.3102-.02617-.1495-.10839-.3176-.06354-.441.59797-1.6421 1.20477-3.2804 1.82017-4.915.2393-.6466.4897-1.2894.7476-1.936l.0897.0112zm-.6205.4298c-.7662 2.0108-1.5287 4.0254-2.31729 6.096-.17941-2.4331.85219-4.3468 2.31729-6.096zm-.2205 11.8408l-7.83778-.5532c1.4801-.5569 6.03626-.6092 7.83778.5532zm-1.1213 1.495c-2.18714.3671-4.43428-.0037-6.38757-1.054a5.963631 5.963631 0 01-.84844-.6615l.04112-.0823c3.00504.2293 6.01507.461 9.03009.6952.0635 0 .1196.0972.2168.1832-.5777.4979-1.2883.8162-2.0445.9157l-.0075.0037zm5.1766 2.8107c-2.7509.1869-5.5055.0785-8.33486.0748 2.81066-1.2297 5.56536-1.3717 8.33486-.0748zm-.2055.7886c-1.3235.4888-2.7324.7037-4.1413.6317-.598-.0411-1.1923-.1046-1.79034-.1084-1.06192-.0388-2.10371-.3012-3.05737-.7699 3.20313-.3177 6.41751.0672 9.62061-.2804 0 .0412.0187.0785.0262.1159-.2025.1664-.4232.3094-.6578.4261v-.015zM14.7672 7.96105c-.3027.76621-.8821 1.07643-1.5324.81854-.3082-.108-.5617-.33243-.7064-.62518-.1446-.29276-.1688-.63052-.0673-.94089.2355-.61297 1.1213-1.054 1.7118-.82975.2783.14111.4936.38128.6036.6732.11.29193.1067.61446-.0093.90408zm-.2915-.11213c.0779-.21941.0747-.45945-.0089-.67674-.0836-.21729-.2422-.39751-.4471-.50809-.257-.05768-.5259-.02754-.7637.08561-.2378.11316-.4309.30279-.5482.53858-.0432.11886-.0619.24523-.0551.37152.0069.12628.0393.24987.0951.36334.0559.11347.1341.21447.23.29693a.938458.938458 0 00.328.18293c.4934.19436.9382-.0598 1.1699-.65408z" fill="#AE7C78"/><path d="M4.22695 7.10146a.814741.814741 0 01.28351.14886.814723.814723 0 01.20425.24661c.0511.0949.08286.199.09345.30627a.814652.814652 0 01-.03178.31863 1.01287 1.01287 0 01-.20835.34103 1.012747 1.012747 0 01-.32405.2339 1.012875 1.012875 0 01-.3893.09035 1.012984 1.012984 0 01-.39394-.06726c-.19026-.09128-.3365-.25435-.40658-.45339-.07008-.19904-.05828-.41776.03282-.6081a.856018.856018 0 01.167-.31289.855882.855882 0 01.27951-.21832.85565.85565 0 01.34401-.08628.855827.855827 0 01.34945.06059zm-.11213.26163a.597952.597952 0 00-.24226-.04549.59785.59785 0 00-.24004.05609.597988.597988 0 00-.19702.14814.598074.598074 0 00-.12053.21502.5794.5794 0 00-.02469.42127c.04503.13853.14058.25502.26764.32626.18436.06073.38477.05031.56183-.02923a.777436.777436 0 00.395-.4006.557042.557042 0 00.01114-.21708.557032.557032 0 00-.07281-.20481.557027.557027 0 00-.14567-.16133.556925.556925 0 00-.19632-.09329l.00373-.01495zM11.9038 5.0158c.1869-.42983.471-.61671.7476-.49337.1649.08706.2932.23025.3618.40367.0685.17343.0728.36566.0119.54195-.0844.14132-.2188.24583-.3766.29289-.1578.04705-.3275.03323-.4755-.03873a.478369.478369 0 01-.1871-.10802c-.0533-.04979-.0945-.11112-.1205-.17929-.026-.06816-.036-.14136-.0293-.214.0066-.07264.0298-.1428.0677-.2051zM3.75986 5.26994a.542002.542002 0 01.18497.12413.542108.542108 0 01.11941.18805.542029.542029 0 01.03368.2202.541995.541995 0 01-.05774.21514.635397.635397 0 01-.74753.35507c-.25042-.10091-.33264-.40366-.20183-.72883.13082-.32517.39619-.48589.66904-.37376zM1.39772 6.59317c.13082-.37377.34387-.37377.50085-.26911.15698.10465.1794.28032.2691.42609a1.408946 1.408946 0 01-.54569.17566c-.10091-.01121-.17567-.25789-.22426-.33264zM14.1133 5.05705c-.0711-.25416-.1757-.4373-.1271-.50458.1343-.14769.2906-.27376.4634-.37376.0769.18389.12.38015.1271.57933 0 .10092-.2317.15698-.4634.29901zM20.2241 16.4679c3.0574.4074 3.9432 1.9174 3.9432 3.4835 0 2.1977-1.7417 3.7376-4.6384 3.7376-.5756 0-1.738-.0598-3.3227-.0598-.9045 0-1.8688.0224-2.3958.0598v-.3738c1.3119-.056 1.566-.2541 1.566-1.6595V12.065c0-1.4053-.2541-1.6034-1.566-1.6595v-.3738c.5382.0374 1.495.0561 2.3584.0561 1.2185 0 2.4519-.0374 2.9154-.0374 2.706-.0149 4.0889 1.2409 4.0889 3.0312 0 1.368-.7737 2.6986-2.934 3.3639l-.015.0224zm-3.0536-4.4029v4.3805h1.3007c2.2725 0 2.8331-1.4951 2.8331-3.1658 0-1.8949-.7737-2.8742-2.7098-2.8742-1.1698 0-1.424.3289-1.424 1.6595zm5.0645 7.8004c0-1.9622-.9905-3.1022-3.4424-3.1022h-1.6221v4.8851c0 1.3492.2542 1.6034 1.4502 1.6034 2.5304 0 3.6143-1.1998 3.6143-3.3863zM34.7149 18.7329c0 3.7077-1.9323 5.2326-4.3842 5.2326s-4.388-1.5399-4.388-5.2326c0-3.6928 1.9324-5.2551 4.388-5.2551s4.3842 1.5399 4.3842 5.2551zm-6.8959 0c0 3.4535 1.0465 4.8589 2.5117 4.8589 1.4651 0 2.5079-1.3942 2.5079-4.8589 0-3.4648-1.039-4.8589-2.5079-4.8589-1.4689 0-2.5117 1.3978-2.5117 4.8589zM42.149 13.762v.3737h-2.8593v7.4753c0 1.2147.4635 1.6408 1.2372 1.6408.7736 0 1.338-.5569 1.7454-2.0669l.3738.0972c-.2654 1.495-.9456 2.6686-2.508 2.6686-.8895 0-1.409-.2168-1.8314-.6429-.5644-.5756-.7475-1.3306-.7475-2.706v-6.4549h-1.8688v-.3737h1.8688v-2.9527c.5888 0 1.1739-.092 1.7342-.2729v3.2256l2.8556-.0112zM49.6131 14.2029c.613.6205.7699 1.3381.7699 2.7061v5.3709c0 .6242.1533.9157.5943.9157.3298-.0177.6408-.1592.8709-.3962l.2168.3327c-.4788.4483-1.1084.7004-1.7642.7064-1.3493 0-1.6595-.8111-1.6595-1.7156-.2958.5263-.7277.9633-1.2505 1.2651-.5228.3019-1.1172.4575-1.7209.4505-1.2932 0-2.4556-.6503-2.4556-2.1603 0-1.51 1.1811-2.209 3.1134-3.02 1.2932-.5345 2.3136-.8672 2.3136-1.6409v-1.2072c0-1.6221-.7924-1.9436-1.7941-1.9436-.6615 0-1.4726.1309-1.9136.6878.2623.0651.4947.2175.659.4321.1644.2146.2509.4787.2455.7489.0057.1455-.0201.2905-.0755.4251-.0553.1346-.1391.2556-.2455.355-.1064.0993-.233.1745-.3711.2205-.1381.046-.2845.0617-.4292.046-.6616 0-1.0465-.5009-1.0465-1.1998 0-.5644.3737-1.0092.9045-1.3754.8148-.4974 1.7553-.7504 2.7098-.7289 1.0727 0 1.8837.2841 2.3285.7251zm-.9718 3.5919c-.2093.3139-.6354.5083-1.8501 1.1213-.8485.4074-1.8688.9643-1.8688 2.4556 0 1.1586.6578 1.6969 1.5474 1.6969.7736 0 1.5249-.4074 2.179-1.4615l-.0075-3.8123zM61.1843 14.2029c.4822.527.669 1.2147.669 2.5378v5.1617c0 1.0764.4074 1.3866 1.4727 1.3866v.4074c-.4411 0-1.4727-.0785-2.3211-.0785s-1.7529.0598-2.1603.0785v-.4074c.9269 0 1.2745-.3102 1.2745-1.3866v-5.584c0-1.1998-.1682-2.2426-1.5661-2.2426-1.6221 0-2.706 1.5474-2.706 3.5208v4.3058c0 1.0764.3476 1.3866 1.282 1.3866v.4074c-.4037 0-1.3194-.0785-2.1678-.0785-.8485 0-1.8688.0598-2.3211.0785v-.4074c1.0652 0 1.4689-.3102 1.4689-1.3866v-6.0475c0-1.1587-.3476-1.7081-1.4689-1.7081v-.4036c.4037.0373.8111.056 1.1961.056.6801.0191 1.3589-.0705 2.0108-.2654v2.2763c.6802-1.738 1.9697-2.3323 3.2928-2.3323.9793 0 1.6035.2654 2.0445.7251zM67.3856 21.9025c0 1.0765.4036 1.3867 1.4689 1.3867v.4074c-.4411 0-1.4502-.0785-2.3398-.0785-.8895 0-1.895.0598-2.336.0785v-.4074c1.0652 0 1.4689-.3102 1.4689-1.3867v-6.0474c0-1.1587-.3476-1.7081-1.4689-1.7081v-.4037c.4037.0374.8111.0561 1.196.0561.6802.0191 1.359-.0705 2.0109-.2654v8.3685zm.2354-11.7548c.0008.2449-.0712.4844-.2066.6884-.1355.2039-.3285.3631-.5545.4573-.226.0942-.4748.1192-.7151.0719-.2402-.0473-.461-.1649-.6344-.3377-.1734-.1729-.2916-.3933-.3396-.6334a1.23606 1.23606 0 01.0698-.71531c.0935-.22628.252-.41972.4556-.55582a1.23687 1.23687 0 01.6877-.20876c.3266.00291.639.13367.8703.36425.2312.23058.3629.5426.3668.86914zM78.4225 22.2799c.441.6018.7699.9344 1.3455 1.0092v.4074c-.2915 0-.9792-.0785-1.566-.0785-.8111 0-1.7343.0598-2.138.0785v-.4074c.3738 0 .5943-.1495.5943-.3738-.0083-.1077-.0486-.2106-.1158-.2952l-2.2164-3.2443c-.471-.6578-.7737-.8185-1.4502-.8484v3.3638c0 1.0765.3476 1.3867 1.2707 1.3867v.4186c-.4036 0-1.3305-.0785-2.1416-.0785-.8858 0-1.895.0598-2.336.0785v-.4074c1.0652 0 1.4689-.3102 1.4689-1.3867V10.8653c0-1.15871-.3476-1.69693-1.4689-1.69693v-.4074c.3974.03996.7966.05992 1.196.0598a6.171222 6.171222 0 002.0109-.27658v9.59451c.6335-.0505 1.2253-.3357 1.6595-.7999l1.4315-1.495c.4335-.4523.6129-.7999.6129-1.0653 0-.4709-.6129-.6615-1.424-.6615v-.3738c.6728.0374 1.6221.0748 2.179.0748.6429 0 1.2933-.0374 1.682-.0748v.3738c-.672.0765-1.2915.4003-1.738.9082l-2.3473 2.4706 3.491 4.7841zM86.8621 14.2029c.613.6204.7737 1.338.7737 2.706v5.371c0 .6241.1533.9157.5943.9157.3298-.0177.6408-.1592.8709-.3962l.2168.3326c-.4788.4483-1.1084.7004-1.7642.7064-1.3493 0-1.6632-.811-1.6632-1.7155-.2973.5291-.7322.9679-1.2586 1.2699-.5264.302-1.1247.456-1.7315.4456-1.2895 0-2.4519-.6503-2.4519-2.1603 0-1.51 1.1811-2.2089 3.1134-3.02 1.2932-.5345 2.3099-.8671 2.3099-1.6408V15.81c0-1.6221-.7924-1.9435-1.7904-1.9435-.6615 0-1.4726.1308-1.9136.6877.2623.0652.4947.2176.659.4322.1644.2146.2509.4786.2455.7489.0057.1454-.0201.2904-.0755.425s-.1391.2557-.2455.355-.233.1745-.3711.2205c-.1381.046-.2845.0617-.4292.046-.6616 0-1.0465-.5008-1.0465-1.1998 0-.5643.3737-1.0091.9045-1.3754.8137-.4969 1.7528-.7498 2.706-.7288 1.0951 0 1.9062.284 2.3472.7251zm-.9717 3.5918c-.2056.314-.6317.5083-1.8464 1.1213-.8485.4074-1.8688.9643-1.8688 2.4556 0 1.1587.6578 1.6969 1.5436 1.6969.7737 0 1.5287-.4074 2.179-1.4614l-.0074-3.8124zM32.6257 30.5737v1.267h-.3364v-.9568h-3.4162v-3.6778h.3513v3.3638h2.437v-3.3638h.3513v3.3638l.613.0038zM36.6287 29.9009c0 .6354-.4485.9867-1.3942.9867h-1.5959v-3.6815h1.5511c.811 0 1.3082.3251 1.3082.9381.0045.1984-.0613.3921-.1858.5467-.1245.1545-.2997.2601-.4945.298.1138.0047.2255.0322.3284.081.1029.0488.195.1178.2707.2029.0756.0851.1334.1846.1698.2925.0365.1079.0508.222.0422.3356zm-2.6164-1.0167h1.1811c.6279 0 .9793-.2392.9793-.6989s-.3514-.6914-.9793-.6914h-1.1811v1.3903zm2.2762 1.0167c0-.4971-.3027-.7251-.9942-.7251h-1.282v1.439h1.2372c.6728-.0187 1.039-.2392 1.039-.7139zM41.0273 29.131h-3.162c.02.3081.1305.6033.3174.8489.187.2456.4422.4306.7338.532.2916.1013.6066.1144.9055.0376.299-.0767.5687-.2399.7755-.4691l.2055.2317c-.1719.1967-.3857.3525-.6256.456-.2399.1035-.4999.152-.761.142-.25.0126-.4998-.0269-.7337-.116-.2338-.0891-.4466-.2258-.6248-.4016-.1782-.1757-.3179-.3866-.4103-.6192-.0923-.2326-.1353-.4819-.1262-.732-.0157-.2403.0181-.4813.0993-.708.0812-.2268.208-.4344.3727-.6102.1647-.1758.3636-.3159.5846-.4116.221-.0958.4593-.1452.7001-.1452.2408 0 .4791.0494.7001.1452.221.0957.4199.2358.5846.4116s.2915.3834.3727.6102c.0812.2267.115.4677.0993.708 0 .0187-.0075.0524-.0075.0897zm-3.1545-.2765h2.8181c0-.3738-.1484-.7322-.4127-.9964-.2642-.2643-.6227-.4127-.9964-.4127-.3737 0-.7321.1484-.9963.4127-.2643.2642-.4127.6226-.4127.9964zM44.4776 27.5238h-1.439v3.3638h-.3513v-3.3638H41.252v-.3177h3.2256v.3177zM48.077 29.699c0 .7812-.5195 1.2073-1.4764 1.1998h-1.3754v-3.6927h.3738v1.3268h1.0951c.897.0187 1.3829.4224 1.3829 1.1661zm-.3513 0c0-.598-.3738-.8708-1.1213-.8858H45.599v1.7978h1.0054c.7363.0374 1.1213-.3065 1.1213-.912zm1.0278-2.4929h.3551v3.6778h-.3551v-3.6778zM55.4175 29.9009c0 .6354-.4522.9867-1.3941.9867h-1.5922v-3.6815h1.5511c.8073 0 1.3081.3251 1.3081.9381a.843826.843826 0 01-.1881.547c-.1251.1545-.3007.2599-.4959.2977.1138.0047.2255.0322.3284.081.103.0488.195.1178.2707.2029.0757.0851.1335.1846.1699.2925.0364.1079.0507.222.0421.3356zM52.775 28.888h1.1848c.628 0 .9793-.2392.9793-.699 0-.4597-.3513-.6914-.9793-.6914H52.775v1.3904zm2.2912 1.0129c0-.4971-.3028-.7251-.9942-.7251h-1.297v1.439h1.2409c.684-.0187 1.0503-.2392 1.0503-.7139zM62.6646 25.9541v4.9299h-.3737v-4.6085h-3.3377v4.6085h-.3738v-4.9299h4.0852zM67.4451 29.131h-3.1582c.02.3081.1304.6033.3174.8489.187.2456.4422.4306.7338.532.2916.1013.6065.1144.9055.0376.299-.0767.5687-.2399.7755-.4691l.2055.2317c-.1719.1967-.3857.3525-.6256.456-.2399.1035-.4999.152-.761.142-.25.0126-.4998-.0269-.7337-.116-.2339-.0891-.4466-.2258-.6248-.4016-.1782-.1757-.3179-.3866-.4103-.6192-.0923-.2326-.1353-.4819-.1262-.732-.0157-.2403.0181-.4813.0993-.708.0812-.2268.208-.4344.3727-.6102.1646-.1758.3636-.3159.5846-.4116.221-.0958.4592-.1452.7001-.1452.2408 0 .4791.0494.7001.1452.2209.0957.4199.2358.5846.4116.1646.1758.2915.3834.3727.6102.0811.2267.1149.4677.0993.708-.0038.0187-.0113.0524-.0113.0897zm-3.1582-.2765h2.8181c0-.3738-.1484-.7322-.4127-.9964-.2642-.2643-.6226-.4127-.9964-.4127-.3737 0-.7321.1484-.9963.4127-.2643.2642-.4127.6226-.4127.9964zM70.8914 27.5238h-1.439v3.3638h-.3513v-3.3638h-1.4502v-.3177h3.2256l.0149.3177zM74.6102 29.131h-3.162c.02.308.1304.6033.3174.8489.187.2456.4422.4306.7338.5319.2916.1013.6065.1144.9055.0377.299-.0768.5687-.2399.7755-.4692l.2018.2318c-.1718.1969-.3855.3528-.6255.4563-.2399.1035-.5.1519-.7612.1417-.2499.0126-.4998-.0269-.7336-.116-.2339-.0891-.4467-.2259-.6249-.4016-.1782-.1758-.3179-.3866-.4102-.6192a1.805036 1.805036 0 01-.1263-.732 1.75793 1.75793 0 01.1005-.7076c.0816-.2265.2089-.4338.374-.6091.165-.1752.3644-.3147.5856-.4097.2212-.0949.4596-.1434.7004-.1424.2411-.0027.4801.0446.7019.1391.2218.0944.4216.2339.5868.4096.1651.1756.2919.3837.3725.6109s.1131.4687.0955.7092c0 .0187-.0075.0523-.0075.0897zm-3.1546-.2766h2.8145c-.0186-.3607-.175-.7004-.4369-.9491-.2618-.2488-.6092-.3874-.9704-.3874-.3611 0-.7085.1386-.9703.3874-.2619.2487-.4183.5884-.4369.9491zM79.4352 29.0451c.0124.2446-.0258.4891-.1122.7182-.0865.2291-.2193.4379-.3901.6134-.1709.1754-.3762.3137-.6029.4061-.2268.0924-.4702.1371-.715.1311-.3048.0092-.6062-.0667-.8703-.2192-.2641-.1525-.4804-.3756-.6248-.6442v2.2052h-.3513v-5.0495h.3364v.8671c.1399-.2745.3544-.5039.6188-.6619.2645-.1581.5682-.2382.8762-.2314.2456-.0075.4901.0359.7181.1274.228.0915.4347.2291.607.4042s.3066.384.3944.6135c.0877.2294.1271.4746.1157.72zm-.3551 0a1.49518 1.49518 0 00-.2787-.8148c-.1709-.2384-.408-.4212-.682-.5258-.274-.1046-.5726-.1264-.8589-.0625-.2862.0639-.5473.2105-.7508.4216-.2035.2112-.3405.4775-.3937.7659-.0533.2884-.0206.5861.094.856.1146.2699.3061.5002.5506.6621.2445.162.5312.2484.8245.2486.2023.0045.4034-.033.5906-.1101.1871-.0771.3563-.1922.4967-.3379.1405-.1457.2492-.319.3194-.5089.0702-.1898.1002-.3921.0883-.5942zM84.0479 29.0749c.0132.2436-.0246.4872-.1111.7152-.0865.2281-.2197.4356-.3911.6091s-.3772.3093-.6042.3985c-.227.0893-.4701.1301-.7138.1199-1.2222 0-1.8987-.9494-1.8987-2.3996 0-1.6707.6055-2.3958 1.8426-2.6911l1.6371-.4111.0561.3326-1.5512.3738c-1.1212.2616-1.6183.8372-1.6408 2.2426.1177-.3303.3378-.6143.6283-.8107.2904-.1963.6361-.2947.9864-.2807.2369-.0082.4729.0331.6929.1213.2201.0882.4193.2213.585.3908.1656.1696.2941.3718.3772.5938.0831.222.119.4589.1053.6956zm-.3738 0c.01-.1964-.02-.3927-.0883-.5772-.0683-.1844-.1734-.353-.3088-.4955-.1355-.1425-.2986-.256-.4793-.3336-.1807-.0775-.3753-.1175-.5719-.1175-.1966 0-.3912.04-.5719.1175-.1807.0776-.3438.1911-.4792.3336-.1355.1425-.2406.3111-.3089.4955-.0682.1845-.0983.3808-.0883.5772-.01.1964.0201.3928.0883.5772.0683.1844.1734.353.3089.4955.1354.1425.2985.256.4792.3336.1807.0775.3753.1175.5719.1175.1966 0 .3912-.04.5719-.1175.1807-.0776.3438-.1911.4793-.3336.1354-.1425.2405-.3111.3088-.4955.0683-.1844.0983-.3808.0883-.5772zM88.088 27.2061l-1.8875 4.1898c-.2952.6765-.6615.8933-1.1474.8933-.1571.0044-.3135-.0227-.4598-.0799a1.173623 1.173623 0 01-.3924-.2527l.1757-.2654c.0865.0944.1925.1689.3105.2186.1181.0497.2455.0733.3735.0692.3364 0 .583-.1533.811-.6541l.1944-.4448-1.652-3.6628h.3737l1.4726 3.2891 1.4727-3.2891.355-.0112zM92.6107 29.045c.013.2444-.0247.4889-.1107.718-.0861.2291-.2185.438-.3891.6134-.1706.1755-.3756.3139-.6022.4063-.2265.0925-.4698.1372-.7145.1311-.3045.008-.6054-.0684-.8692-.2208-.2639-.1524-.4805-.3748-.6258-.6425v2.2052h-.3439v-5.0496h.3402v.8672c.1399-.2745.3544-.504.6188-.662.2645-.158.5682-.2382.8762-.2313.2445-.006.4876.0386.7141.1308.2265.0922.4316.2301.6024.4051.1708.1751.3037.3834.3903.6121.0867.2287.1253.4728.1134.717zm-.3513 0c-.011-.293-.1079-.5764-.2788-.8147-.1708-.2384-.4079-.4213-.6819-.5259-.274-.1046-.5727-.1263-.8589-.0625-.2862.0639-.5473.2105-.7508.4217-.2035.2111-.3405.4775-.3938.7658-.0532.2884-.0205.5861.0941.856.1146.27.3061.5002.5506.6622.2445.1619.5312.2483.8244.2486.2024.0044.4035-.0331.5906-.1102.1872-.0771.3563-.1921.4968-.3379.1405-.1457.2492-.319.3194-.5088.0701-.1899.1002-.3922.0883-.5943zM96.2732 27.5238h-2.164v3.3638h-.3514v-3.6815h2.5154v.3177zM99.9923 29.131h-3.162c.02.308.1304.6033.3174.8489.187.2456.4422.4306.7338.5319.2916.1013.6065.1144.9055.0377.299-.0768.5687-.2399.7755-.4692l.2055.2318c-.1727.1968-.3871.3526-.6276.456-.2405.1035-.5011.152-.7628.142-.2499.0126-.4998-.0269-.7336-.116-.2339-.0891-.4467-.2259-.6249-.4016-.1782-.1758-.3179-.3866-.4102-.6192-.0924-.2326-.1354-.4819-.1262-.732a1.75694 1.75694 0 01.1007-.7085c.0818-.2268.2095-.4343.3749-.6096.1655-.1753.3653-.3146.587-.4094.2217-.0947.4604-.1428.7015-.1413.2409-.0028.4798.0446.7015.1391.2216.0945.4212.234.586.4097.1649.1758.2914.3839.3715.6111.0801.2272.1122.4686.094.7089 0 .0187-.0075.0523-.0075.0897zm-3.1546-.2766h2.8145c-.0186-.3607-.175-.7004-.4369-.9491-.2618-.2488-.6092-.3874-.9703-.3874-.3612 0-.7086.1386-.9704.3874-.2619.2487-.4183.5884-.4369.9491z" fill="#AE7C78"/></g><defs><clipPath id="clip0"><path fill="#fff" d="M0 0h100v32.2781H0z"/></clipPath></defs></svg>