<svg width="59" height="52" fill="none" xmlns="http://www.w3.org/2000/svg"><path d="M51.6795 9.18921h-2.722c-.4741 0-.8583.38419-.8583.85829 0 .4742.3842.8584.8583.8584h2.722c.4741 0 .8583-.3842.8583-.8584 0-.4741-.3843-.85829-.8583-.85829zM36.4066 13.3298c-4.7996 0-8.7043 3.9064-8.7043 8.7077 0 4.7997 3.9046 8.7046 8.7043 8.7046 4.8014 0 8.7076-3.9049 8.7076-8.7046 0-4.8013-3.9062-8.7077-8.7076-8.7077zm0 15.6957c-3.853 0-6.9876-3.1347-6.9876-6.9878 0-3.8549 3.1346-6.9912 6.9876-6.9912 3.8547 0 6.9909 3.1362 6.9909 6.9912 0 3.853-3.1361 6.9878-6.9909 6.9878z" fill="#AE7C78"/><path d="M55.3814 4.60615H44.9537l-1.0094-2.78969C43.7816 1.36715 43.2863 0 41.8869 0H28.5343c-1.3994 0-1.8947 1.36715-2.0576 1.8168l-1.0093 2.78935H16.977V2.53116c0-1.13002-.9193-2.04935-2.0493-2.04935h-3.8241c-1.12815 0-2.04599.91933-2.04599 2.04935v2.11207c-1.54122.23644-2.72538 1.57246-2.72538 3.18029V25.3803l-3.88881.7543c-1.634836.3186-2.705691 1.907-2.387421 3.5397l3.853911 19.884C4.19121 50.9969 5.4604 52 6.87779 52c.1886 0 .37995-.0177.57188-.0547l8.38373-1.6266c.4653-.0902.7694-.5407.6791-1.0061-.0903-.4653-.541-.7697-1.0061-.6791l-8.38221 1.6263c-.70635.1363-1.39199-.3268-1.52932-1.0295L1.74096 29.3468c-.13733-.7046.32514-1.3897 1.03-1.5273l20.90384-4.0548c.3389-.0649.6851.0067.975.2025.2898.1959.4853.4903.5506.8308l3.8571 19.88c.1374.7046-.3251 1.3897-1.03 1.5272l-8.387 1.6266c-.4653.0903-.7694.5408-.6792 1.0061.0903.4653.5407.7691 1.006.6793l8.3878-1.6269c1.6348-.3186 2.7057-1.907 2.3874-3.5399l-1.0431-5.3757h9.5807c.4742 0 .8584-.3842.8584-.8584 0-.4741-.3842-.8583-.8584-.8583h-9.9137l-.9044-4.6618c2.2714 1.709 5.0551 2.6566 7.9443 2.6566 5.728 0 10.6158-3.6619 12.4465-8.7666h8.026v9.271c0 .8275-.6717 1.5008-1.4974 1.5008H43.4838c-.4742 0-.8583.3842-.8583.8583 0 .4742.3841.8584.8583.8584h11.8976c1.7722 0 3.2141-1.4434 3.2141-3.2175V7.82352c0-1.77412-1.4419-3.21737-3.2141-3.21737zM28.0908 2.40127c.1645-.45423.3137-.68449.4435-.68449h13.3526c.1615 0 .3303.37228.4433.68414l.798 2.20523H27.2929l.7979-2.20488zM23.1921 22.0377c0 .024.0012.048.0013.0719l-6.2164 1.2059v-4.0092h6.4995c-.1859.8817-.2844 1.7951-.2844 2.7314zM10.7742 2.53116c0-.18036.1508-.33269.3293-.33269h3.8241c.1834 0 .3327.14924.3327.33269v2.07499h-4.4861V2.53116zM8.04889 7.82352c0-.82743.67179-1.50071 1.49739-1.50071h5.71402V23.6484l-2.9058.5636v-9.6806c0-.8244-.6706-1.4951-1.4951-1.4951H8.04889V7.82352zm0 6.92948h2.58901v9.7921l-2.58901.5022V14.753zM36.4066 33.5359c-3.2318 0-6.3121-1.3621-8.4885-3.744l-1.032-5.3194c-.1518-.79-.6046-1.4746-1.2751-1.9277-.2204-.1489-.4554-.2661-.6997-.3517-.0007-.0518-.0027-.1035-.0027-.1554 0-6.3419 5.158-11.5014 11.4978-11.5014 6.3419 0 11.5012 5.1596 11.5012 11.5014.0001 6.3401-5.1592 11.4982-11.501 11.4982zm20.4722-8.7666h-7.5391c.1861-.8817.2846-1.7953.2846-2.7316 0-.9363-.0985-1.8497-.2845-2.7314h7.539v5.463zm0-7.1797h-8.0253c-1.8304-5.1067-6.7186-8.76996-12.4469-8.76996-5.7269 0-10.6139 3.66336-12.4439 8.76996h-6.9858V6.32281H55.3813c.8257 0 1.4974.67328 1.4974 1.50071v9.76608h.0001z" fill="#AE7C78"/><path d="M26.0021 43.462c.2014-.3009.2747-.6533.2066-.9898l-2.9172-14.659c-.1551-.7666-.9553-1.2351-1.823-1.0684L5.54624 29.8329c-.87115.1684-1.43799.9049-1.2891 1.6844L7.17559 46.166c.06477.3389.26505.6372.5642.84.26174.1774.58356.2706.91682.2706.11387 0 .22911-.0108.34379-.033l15.919-3.0882c.4513-.0871.8459-.3399 1.0827-.6934zM7.63863 39.6604L6.00299 31.493l15.66591-3.0385.9505 4.7762-2.0086.3901c-3.8309.7429-5.1028 1.8902-6.3327 2.9995-1.1912 1.0745-2.4217 2.1835-6.63947 3.0401zm1.16298 5.8731l-.39987-2.0627-.42608-2.1276c4.68464-.9536 6.15134-2.2747 7.45224-3.4481 1.1523-1.0393 2.1473-1.937 5.5099-2.589l2.0165-.3917 1.5086 7.581-15.66129 3.0381z" fill="#AE7C78"/></svg>